PathFileType	4	(X/Y/Z)	C:\Users\Basilio\Documents\Thesis Gigler\squatting_fais\c3dfiles\044\SLS_front_pre5\markers_experimental.trc
DataRate	CameraRate	NumFrames	NumMarkers	Units	OrigDataRate	OrigDataStartFrame	OrigNumFrames
200.000000	200.000000	4	60	mm	200.000000	0	1427
Frame#	Time	FHD			LBHD			RBHD			C7			T10			LSHO			LUUPA			LMUPA			LDUPA			LLEP			LMEP			LUL			LRFIN			RSHO			RUPA1			RMUPA			RDUPA			RLEP			RMEP			RUL			RUFIN			LASI			RASI			USACR			LSACR			RSACR			LTHI1			LTHI2			LTHI3			LTHI4			LLFC			LMFC			LTIB1			LTIB2			LTIB3			LTIB4			LLMAL			LMMAL			LHEE			LMT1			LMT2			LMT5			RTHI			RTHI2			RTHI3			RTHI4			RLFC			RMFC			RTIB1			RTIB2			RTIB3			RTIB4			RLMAL			RHEE			RMT1			RMT2			RMT5			CLAV			RMMAL			LRAD			
		X1	Y1	Z1	X2	Y2	Z2	X3	Y3	Z3	X4	Y4	Z4	X5	Y5	Z5	X6	Y6	Z6	X7	Y7	Z7	X8	Y8	Z8	X9	Y9	Z9	X10	Y10	Z10	X11	Y11	Z11	X12	Y12	Z12	X13	Y13	Z13	X14	Y14	Z14	X15	Y15	Z15	X16	Y16	Z16	X17	Y17	Z17	X18	Y18	Z18	X19	Y19	Z19	X20	Y20	Z20	X21	Y21	Z21	X22	Y22	Z22	X23	Y23	Z23	X24	Y24	Z24	X25	Y25	Z25	X26	Y26	Z26	X27	Y27	Z27	X28	Y28	Z28	X29	Y29	Z29	X30	Y30	Z30	X31	Y31	Z31	X32	Y32	Z32	X33	Y33	Z33	X34	Y34	Z34	X35	Y35	Z35	X36	Y36	Z36	X37	Y37	Z37	X38	Y38	Z38	X39	Y39	Z39	X40	Y40	Z40	X41	Y41	Z41	X42	Y42	Z42	X43	Y43	Z43	X44	Y44	Z44	X45	Y45	Z45	X46	Y46	Z46	X47	Y47	Z47	X48	Y48	Z48	X49	Y49	Z49	X50	Y50	Z50	X51	Y51	Z51	X52	Y52	Z52	X53	Y53	Z53	X54	Y54	Z54	X55	Y55	Z55	X56	Y56	Z56	X57	Y57	Z57	X58	Y58	Z58	X59	Y59	Z59	X60	Y60	Z60	

1	0	-258.2025756835938	1807.815185546875	-850.674011230469	-389.4895629882814	1759.934814453125	-922.8289794921877	-423.3409729003907	1734.54345703125	-761.3721313476564	-425.4216918945314	1559.760131835938	-851.9459228515627	-393.1634521484376	1257.198974609375	-852.7005615234377	-337.1378784179688	1595.238525390625	-998.6150512695315	-170.3471069335938	1579.867309570313	-1095.726806640625	-144.1112670898438	1590.969482421875	-1054.495727539063	-100.9558792114258	1577.42822265625	-1095.885986328125	-43.80200576782227	1577.640869140625	-1084.913330078125	-51.92997360229494	1501.6494140625	-1074.238647460938	209.4106750488282	1591.544311523438	-966.6118164062502	222.9539642333985	1603.552001953125	-864.7776489257815	-334.1460266113282	1572.942504882813	-694.5742187500001	-174.4250640869141	1549.865356445313	-597.2846679687501	-145.8756103515625	1567.452514648438	-636.2545166015626	-104.5065383911133	1551.812377929688	-594.8041992187501	-43.51062393188477	1558.124145507813	-605.4649047851564	-43.47634506225587	1477.513305664063	-620.9877319335939	206.5033721923829	1584.881469726563	-733.4415893554689	220.7805175781251	1574.58740234375	-848.0278930664065	-204.3633117675782	1079.432739257813	-974.5129394531252	-181.7444915771485	1063.070678710938	-757.1986694335939	-365.4768981933594	1116.148803710938	-845.2254028320315	-370.6711120605469	1082.684448242188	-871.674743652344	-363.1927490234376	1086.0380859375	-814.4110107421877	-316.4508361816407	844.768493652344	-1046.905395507813	-286.3363342285157	765.6060180664064	-1055.016967773438	-237.7579956054688	765.2708129882814	-1050.809936523438	-315.8910217285157	713.7778930664064	-1041.293701171875	-307.1851501464844	553.0660400390626	-1038.597534179688	-288.9533386230469	537.3588256835939	-918.1301879882815	-281.5639343261719	373.1477661132813	-985.1849365234377	-312.1591186523438	333.7629089355469	-1058.655517578125	-279.9200439453126	329.0345458984376	-1025.137451171875	-292.3470153808594	248.403793334961	-1002.101257324219	-345.1295471191407	133.1288604736328	-1055.673461914063	-321.9725646972657	138.7478485107422	-972.9315185546877	-408.1098937988282	111.9225845336914	-1006.687561035156	-202.3963317871094	63.86232376098634	-987.3310546875002	-200.9386596679688	63.62249755859376	-1033.804443359375	-238.1583404541016	49.50527954101564	-1079.917724609375	-284.0608825683594	796.7470703125002	-672.3616333007814	-245.8248901367188	740.4971923828126	-675.6214599609376	-215.2081909179688	740.8751831054689	-687.1259155273439	-277.0904235839844	662.0266723632814	-688.9522094726564	-288.8752746582032	546.0545043945314	-696.7701416015626	-306.2103576660157	540.1625366210939	-820.8342895507815	-255.7581787109376	415.6503906250001	-726.3350830078126	-324.4530029296876	348.5345153808594	-672.2091674804689	-284.7688903808594	339.3607482910157	-693.0623779296876	-279.5499572753907	287.7344055175782	-719.4224853515626	-352.1034240722657	139.9631652832032	-697.6712036132814	-414.2553710937501	113.1568756103516	-737.8447265625001	-212.0378112792969	66.08826446533205	-772.9774169921877	-203.6764373779297	61.31344604492189	-736.4918823242189	-239.6723327636719	48.57069778442384	-681.2168579101564	nan	nan	nan	nan	nan	nan	nan	nan	nan	
2	0.005	-258.2351684570313	1807.847412109375	-850.7086181640627	-389.4037170410157	1759.931030273438	-922.8336181640627	-423.3257141113282	1734.536743164063	-761.3880615234376	-425.3973083496095	1559.757202148438	-851.979675292969	-393.1665039062501	1257.178588867188	-852.697448730469	-337.1011047363282	1595.232543945313	-998.5874633789065	-170.2948150634766	1579.8740234375	-1095.750610351563	-144.0584716796875	1590.948486328125	-1054.510131835938	-100.9400787353516	1577.441162109375	-1095.910522460938	-43.89916610717774	1577.6240234375	-1084.85888671875	-51.93381500244142	1501.679321289063	-1074.240356445313	209.3939514160157	1591.550903320313	-966.5390625000002	222.9490051269532	1603.547607421875	-864.7778320312502	-334.0698852539063	1572.94580078125	-694.6333007812501	-174.420883178711	1549.835205078125	-597.2827148437501	-145.939697265625	1567.48876953125	-636.2551269531251	-104.4915618896485	1551.800903320313	-594.8443603515626	-43.50830459594727	1558.119995117188	-605.4649047851564	-43.47936630249024	1477.505981445313	-620.8985595703126	206.5591278076172	1584.879760742188	-733.4293823242189	220.7791137695313	1574.583374023438	-847.9959716796877	-206.9093780517579	1078.685424804688	-973.0593261718752	-181.7258758544922	1063.104248046875	-757.2021484375001	-365.4768981933594	1116.148803710938	-845.2254028320315	-370.5916442871094	1082.667724609375	-871.7163696289065	-363.1522521972657	1086.0322265625	-814.454772949219	-316.4291076660157	844.7459106445315	-1046.91064453125	-286.3268127441407	765.5533447265626	-1055.02490234375	-237.7752838134766	765.2733764648439	-1050.807006835938	-315.8293762207032	713.7841186523439	-1041.324951171875	-307.2294311523438	553.0821533203126	-1038.6201171875	-288.8930664062501	537.3815307617189	-918.1647949218752	-281.5577087402344	373.1164245605469	-985.179138183594	-312.1716308593751	333.7866210937501	-1058.654663085938	-279.7899780273438	329.0642700195313	-1025.161010742188	-292.3028259277344	248.3897399902344	-1002.095703125	-345.2182617187501	133.1933746337891	-1055.694580078125	-321.9496459960938	138.7451629638672	-972.9273681640627	-408.1139526367189	111.9497833251953	-1006.652770996094	-202.3903198242188	63.85872650146486	-987.326110839844	-201.0739746093751	63.53266906738283	-1033.816040039063	-238.1793823242188	49.5566749572754	-1079.914794921875	-284.0472717285157	796.740661621094	-672.3557128906251	-245.8186340332032	740.4867553710939	-675.6429443359376	-214.9237976074219	741.3259277343751	-685.8632202148439	-277.0345458984376	662.0213623046876	-688.9531250000001	-288.8750915527344	546.0529785156251	-696.7796020507814	-306.1618041992188	540.1644897460939	-820.870788574219	-255.7273864746094	415.6221618652345	-726.3571166992189	-324.4099121093751	348.5120849609376	-672.2238769531251	-284.7728271484376	339.3430175781251	-693.0858154296876	-279.5721740722657	287.7297058105469	-719.4482421875001	-352.1084899902344	139.9663391113282	-697.6644287109376	-414.5827941894532	113.4515457153321	-737.9043579101564	-212.0189971923829	66.05670166015626	-772.9672851562502	-203.6865692138672	61.30011367797853	-736.5199584960939	-239.6932983398438	48.60224533081056	-681.2007446289064	nan	nan	nan	nan	nan	nan	nan	nan	nan	
3	0.01	-258.3851013183594	1807.839477539063	-850.599792480469	-389.4761352539064	1759.958129882813	-922.8298950195315	-423.3737792968751	1734.566772460938	-761.4066162109376	-425.3951110839845	1559.760131835938	-852.0084228515627	-393.1390991210939	1257.194213867188	-852.734558105469	-337.0068359375001	1595.227783203125	-998.620056152344	-170.2740783691407	1579.852783203125	-1095.749755859375	-144.0792541503907	1590.962646484375	-1054.502197265625	-100.8246307373047	1577.466064453125	-1095.922729492188	-43.78306961059571	1577.630615234375	-1084.87451171875	-51.92769622802736	1501.631225585938	-1074.237182617188	209.4326477050782	1591.551635742188	-966.5484008789065	222.9490051269532	1603.547607421875	-864.7778320312502	-334.1307983398438	1572.938232421875	-694.6352539062501	-174.4180908203125	1549.839233398438	-597.3355102539064	-145.9196319580078	1567.4501953125	-636.2479858398439	-104.4862365722657	1551.789184570313	-594.7556152343751	-43.50445556640626	1558.08642578125	-605.4609375000001	-43.4738998413086	1477.48388671875	-620.8975830078126	206.5358123779297	1584.876831054688	-733.4080810546876	220.7791137695313	1574.583374023438	-847.9959716796877	-204.3568878173829	1079.395263671875	-974.5131835937502	-181.6841583251953	1063.109985351563	-757.2195434570314	-365.4438171386719	1116.14404296875	-845.2210083007815	-370.5954284667969	1082.671508789063	-871.7194824218752	-363.1465759277344	1086.049194335938	-814.4543457031252	-316.4507751464844	844.7683105468752	-1046.905395507813	-286.3234558105469	765.5510253906251	-1055.027709960938	-237.7685699462891	765.2577514648439	-1050.807739257813	-315.8626708984376	713.7576904296876	-1041.326416015625	-308.1534729003907	553.6384277343751	-1038.535278320313	-288.8608703613282	537.4005126953126	-918.1297607421877	-281.5847778320313	373.0871582031251	-985.209899902344	-312.2260437011719	333.7897949218751	-1058.651733398438	-279.7771301269532	329.1035461425782	-1025.156860351563	-292.3470153808594	248.403793334961	-1002.101257324219	-345.2056579589844	133.1810607910157	-1055.665893554688	-321.9624633789063	138.7625122070313	-972.9307861328127	-408.1244201660157	111.9115371704102	-1006.65185546875	-202.327865600586	63.76785278320314	-987.3321533203127	-200.4547729492188	62.94819259643556	-1034.24658203125	-238.1134490966797	49.58073806762697	-1079.90771484375	-283.9570922851563	796.748962402344	-672.4032592773439	-245.8216400146485	740.4872436523439	-675.6612548828126	-215.2075500488282	740.8444824218751	-687.1974487304689	-276.9991455078126	662.0520019531251	-689.0071411132814	-288.8454589843751	546.0670776367189	-696.8088989257814	-306.1835632324219	540.1435546875001	-820.8374023437502	-255.6967773437501	415.6130981445314	-726.3485107421876	-324.3874206542969	348.5338439941407	-672.2410278320314	-284.7454223632813	339.3280944824219	-693.1010742187501	-279.5593872070313	287.7322387695313	-719.4445190429689	-352.0697631835938	139.9772644042969	-697.6948242187501	-414.571014404297	113.4270095825196	-737.8909912109376	-212.0378112792969	66.08826446533205	-772.9774169921877	-203.6966400146485	61.33346557617189	-736.4705200195314	-239.7283630371094	48.59152603149415	-681.2221069335939	nan	nan	nan	nan	nan	nan	nan	nan	nan	
4	0.015	-258.1462097167969	1807.832641601563	-850.704040527344	-389.5101318359376	1759.937622070313	-922.8565673828127	-423.3887634277345	1734.57421875	-761.4176025390626	-425.3144531250001	1559.761474609375	-852.0557861328127	-393.0812377929689	1257.186157226563	-852.770446777344	-337.1388244628907	1595.22314453125	-998.6531982421877	-170.2794494628907	1579.853881835938	-1095.7451171875	-144.0594940185547	1590.97607421875	-1054.493896484375	-100.9142837524414	1577.429931640625	-1095.873046875	-43.78372955322266	1577.630126953125	-1084.873168945313	-51.92997360229494	1501.6494140625	-1074.238647460938	209.3648223876954	1591.552368164063	-966.548767089844	222.9502563476563	1603.565063476563	-864.784118652344	-334.1002807617188	1572.919067382813	-694.6429443359376	-174.4236145019532	1549.834228515625	-597.2844848632814	-145.9530334472657	1567.42919921875	-636.2331542968751	-104.5091323852539	1551.781860351563	-594.8044433593751	-43.5071144104004	1558.084228515625	-605.4519042968751	-43.47170639038087	1477.473022460938	-620.8925781250001	206.5165405273438	1584.893798828125	-733.3800659179689	220.6484985351563	1576.030395507813	-847.9514770507815	-204.3973388671876	1079.4267578125	-974.5764160156252	-181.6480407714844	1063.115478515625	-757.2891845703126	-365.4248046875001	1116.1435546875	-845.197204589844	-370.5891723632813	1082.689697265625	-871.7200927734377	-363.1465759277344	1086.049194335938	-814.4543457031252	-316.4291076660157	844.7459106445315	-1046.91064453125	-286.2865295410157	765.5763549804689	-1055.049926757813	-237.7096099853516	765.2764892578126	-1050.8330078125	-315.7974243164063	713.7160034179689	-1041.3642578125	-307.1583251953126	553.0925292968751	-1038.62646484375	-288.8955383300782	537.4149780273439	-918.1738891601565	-281.5525207519532	373.0990905761719	-985.181091308594	-312.1053161621094	333.7596435546876	-1058.658447265625	-279.7597351074219	329.0944519042969	-1025.190551757813	-292.2968139648438	248.3702392578126	-1002.098937988281	-345.1635742187501	133.1531066894532	-1055.669311523438	-321.9725646972657	138.7478485107422	-972.9315185546877	-408.1175537109376	111.8973236083985	-1006.648071289063	-202.4156494140626	63.8736038208008	-987.3775634765627	-200.5345764160157	62.96021652221681	-1034.227172851563	-238.1428680419922	49.57228088378908	-1079.925659179688	-283.9560241699219	796.747009277344	-672.4158935546876	-245.7901916503907	740.4876708984376	-675.6525878906251	-215.1931762695313	740.8530883789064	-687.1475219726564	-276.9425659179688	662.0377807617189	-688.9724121093751	-288.8233947753907	546.0717163085939	-696.8572998046876	-306.1001586914063	540.1672973632814	-820.881286621094	-255.6829223632813	415.5853271484376	-726.3887329101564	-324.3845520019532	348.5263671875001	-672.2409667968751	-284.7164001464844	339.3329162597657	-693.1164550781251	-279.5355224609376	287.7265014648438	-719.4453735351564	-352.0812988281251	139.9658203125	-697.6741943359376	-414.2595520019532	113.1749114990235	-737.8260498046876	-212.0189971923829	66.05670166015626	-772.9672851562502	-203.6964569091797	61.3357620239258	-736.4595947265626	-239.7201385498047	48.53023910522462	-681.1889648437501	nan	nan	nan	nan	nan	nan	nan	nan	nan	
